<svg height="32" viewBox="0 0 256 256" width="32" xmlns="http://www.w3.org/2000/svg"><path d="m208 192h-160a8 8 0 0 1 -6.88-12c6.59-11.4 14.88-40.19 14.88-76a72 72 0 0 1 144 0c0 35.82 8.3 64.6 14.9 76a8 8 0 0 1 -6.9 12z" opacity=".2"/><path d="m221.8 175.94c-5.55-9.56-13.8-36.61-13.8-71.94a80 80 0 1 0 -160 0c0 35.34-8.26 62.38-13.81 71.94a16 16 0 0 0 13.81 24.06h40.81a40 40 0 0 0 78.38 0h40.81a16 16 0 0 0 13.8-24.06zm-93.8 40.06a24 24 0 0 1 -22.62-16h45.24a24 24 0 0 1 -22.62 16zm-80-32c7.7-13.24 16-43.92 16-80a64 64 0 1 1 128 0c0 36.05 8.28 66.73 16 80z"/></svg>