<svg height="32" viewBox="0 0 256 256" width="32" xmlns="http://www.w3.org/2000/svg"><path d="m216 120v96h-64v-64h-48v64h-64v-96a8 8 0 0 1 2.34-5.66l80-80a8 8 0 0 1 11.32 0l80 80a8 8 0 0 1 2.34 5.66z" opacity=".2"/><path d="m219.31 108.68-80-80a16 16 0 0 0 -22.62 0l-80 80a15.87 15.87 0 0 0 -4.69 11.32v96a8 8 0 0 0 8 8h64a8 8 0 0 0 8-8v-56h32v56a8 8 0 0 0 8 8h64a8 8 0 0 0 8-8v-96a15.87 15.87 0 0 0 -4.69-11.32zm-11.31 99.32h-48v-56a8 8 0 0 0 -8-8h-48a8 8 0 0 0 -8 8v56h-48v-88l80-80 80 80z"/></svg>