<svg height="32" viewBox="0 0 256 256" width="32" xmlns="http://www.w3.org/2000/svg"><path d="m224 128a95.76 95.76 0 0 1 -31.8 71.37 72 72 0 0 0 -64.2-39.37 40 40 0 1 0 -40-40 40 40 0 0 0 40 40 72 72 0 0 0 -64.2 39.37 96 96 0 1 1 160.2-71.37z" opacity=".2"/><path d="m128 24a104 104 0 1 0 104 104 104.11 104.11 0 0 0 -104-104zm-53.92 173.5a64 64 0 0 1 107.84 0 87.83 87.83 0 0 1 -107.84 0zm21.92-77.5a32 32 0 1 1 32 32 32 32 0 0 1 -32-32zm97.76 66.41a79.66 79.66 0 0 0 -36.06-28.75 48 48 0 1 0 -59.4 0 79.66 79.66 0 0 0 -36.06 28.75 88 88 0 1 1 131.52 0z"/></svg>