<svg height="100" viewBox="0 0 100 100" width="100" xmlns="http://www.w3.org/2000/svg"><g fill="none" fill-rule="nonzero"><path d="m74.7812166 15.3697125c3.2109369 2.2447587 6.0645909 4.8801938 8.5078016 7.8172622-1.0188054.3701693-1.8819811.9979106-2.4423254 1.8107694-7.6445208 10.9360678-23.8184193 17.7831601-39.3340654 16.647485-2.9069408-.2125836-5.4773688 1.5137981-5.7412116 3.8559816-.2638428 2.3421834 1.8788114 4.4132315 4.7857522 4.6258153 1.4647559.1067321 2.9316257.1600981 4.4006093.1600981 8.4044977-.0331457 16.6728978-1.7127095 24.092374-4.8938946 7.9363809-3.3000926 14.6501224-8.2063694 19.4946186-14.2196355 2.2778039 4.4860668 3.7539308 9.3722859 4.3043532 14.4499044 1.1659987 10.7575754-1.6974201 22.0761756-8.2807891 32.734967-7.6022438 12.3060994-18.9591049 20.1209341-31.1581231 21.4405518-1.2548795.1347122-2.5195114.2009828-3.7854795.2009828-10.6060221 0-21.4010223-4.6782815-28.902647-12.7032876-6.4286353-6.8767275-10.505403-15.8091837-12.46409477-27.306617-1.6881192-9.9110989-.64810587-20.5433208 2.85665447-29.1705686 4.4978463-11.0767498 12.7900502-18.691632 23.9790718-22.02065215 12.905889-3.84133427 28.4845278-1.26034733 39.6875007 6.57083785zm-13.20521 65.5564551c-2.4710045.9249498-4.6079599 2.3429497-6.2083722 4.1196326-1.0595226 1.1006288-1.5110819 2.5037301-1.2488616 3.8805072.2837769 1.4196809 1.3467124 2.6606527 2.8934355 3.3780715 1.0152636.4622145 2.1636573.7009371 3.3297337.6921691.9201654-.0015746 1.8324397-.1368124 2.6930427-.3992235 2.8358332-.8621192 5.3421067-2.3074365 7.2695241-4.1921878 1.9933589-1.9497913 2.0804495-3.7602632 1.802267-4.935452-.4780615-1.9621842-2.3431542-3.514562-4.7616545-3.9632813-2.1002766-.4042389-4.3076068.1389794-5.7691147 1.4197642z" fill="#fff"/><path d="m82.5365031 7.71906356c7.5954795 3.77899814 12.7786354 8.28695394 15.4048804 13.39919524 3.8472035 7.4871444 2.2263045 16.6130809-4.2276965 23.8168174-6.7507857 7.5334707-16.6951734 11.1884779-23.8488586 12.9277573-9.2903631 2.2587467-18.8808925 2.60415-27.0369646 2.6443449-.401913.002498-.8048125.003747-1.2086984.003747-6.9803497 0-14.3318911-.330756-21.284338-2.2785036-8.7796573-2.4593805-15.5211421-7.2742479-18.49532657-13.2104838-2.50533294-5.001535-2.44995012-11.0041947.15642477-16.9026201 2.22035367-5.0240301 5.91664872-9.3306367 9.3213064-12.9125521l.407046-.4263509c8.8599835-9.23630206 18.4547407-13.73608264 31.1090818-14.58937185 13.8910146-.95413619 27.7980318 1.68274093 39.7031433 7.52802051zm2.863032 15.08855194c-1.895266.0193636-3.6325125.8550598-4.5528423 2.1901286-7.6445208 10.9360678-23.8184193 17.7831601-39.3340654 16.647485-2.9069408-.2125836-5.4773688 1.5137981-5.7412116 3.8559816-.2638428 2.3421834 1.8788114 4.4132315 4.7857522 4.6258153 1.4647559.1067321 2.9316257.1600981 4.4006093.1600981 8.4044977-.0331457 16.6728978-1.7127095 24.092374-4.8938946 8.7981183-3.6584188 16.0936727-9.2907595 21.0057327-16.2169231.9397579-1.3262535.9260038-2.9564457-.0360456-4.2722825-.9620495-1.3158369-2.7250373-2.1157719-4.6203033-2.0964084z" fill="#8d8d8d"/></g></svg>