<svg
  height="32"
  viewBox="0 0 256 256"
  width="32"
  xmlns="http://www.w3.org/2000/svg"
>
  <path
    d="m128 80a48 48 0 1 0 48 48 48.05 48.05 0 0 0 -48-48zm0 80a32 32 0 1 1 32-32 32 32 0 0 1 -32 32zm109.94-52.79a8 8 0 0 0 -3.89-5.4l-29.83-17-.12-33.62a8 8 0 0 0 -2.83-6.08 111.91 111.91 0 0 0 -36.72-20.67 8 8 0 0 0 -6.46.59l-30.09 16.82-30.12-16.85a8 8 0 0 0 -6.47-.6 112.1 112.1 0 0 0 -36.68 20.75 8 8 0 0 0 -2.83 6.07l-.15 33.65-29.83 17a8 8 0 0 0 -3.89 5.4 106.47 106.47 0 0 0 0 41.56 8 8 0 0 0 3.89 5.4l29.83 17 .12 33.62a8 8 0 0 0 2.83 6.08 111.91 111.91 0 0 0 36.72 20.67 8 8 0 0 0 6.46-.59l30.12-16.86 30.12 16.85a7.91 7.91 0 0 0 3.9 1 8.09 8.09 0 0 0 2.57-.42 112.1 112.1 0 0 0 36.68-20.73 8 8 0 0 0 2.83-6.07l.15-33.65 29.83-17a8 8 0 0 0 3.89-5.4 106.47 106.47 0 0 0 -.03-41.52zm-15 34.91-28.57 16.25a8 8 0 0 0 -3 3c-.58 1-1.19 2.06-1.81 3.06a7.94 7.94 0 0 0 -1.22 4.21l-.15 32.25a95.89 95.89 0 0 1 -25.37 14.3l-28.82-16.06a8 8 0 0 0 -3.91-1h-.19c-1.21 0-2.43 0-3.64 0a8.08 8.08 0 0 0 -4.1 1l-28.84 16.1a96 96 0 0 1 -25.44-14.23l-.11-32.2a8 8 0 0 0 -1.22-4.22c-.62-1-1.23-2-1.8-3.06a8.09 8.09 0 0 0 -3-3.06l-28.6-16.29a90.49 90.49 0 0 1 0-28.26l28.52-16.28a8 8 0 0 0 3-3c.58-1 1.19-2.06 1.81-3.06a7.94 7.94 0 0 0 1.22-4.21l.15-32.25a95.89 95.89 0 0 1 25.37-14.3l28.78 16.06a8 8 0 0 0 4.1 1h3.64a8.08 8.08 0 0 0 4.1-1l28.84-16.1a96 96 0 0 1 25.44 14.23l.11 32.2a8 8 0 0 0 1.22 4.22c.62 1 1.23 2 1.8 3.06a8.09 8.09 0 0 0 3 3.06l28.6 16.29a90.49 90.49 0 0 1 .05 28.29z"
  />
</svg>
