<svg
  height="32"
  viewBox="0 0 256 256"
  width="32"
  xmlns="http://www.w3.org/2000/svg"
>
  <path
    d="m128 88a40 40 0 1 0 40 40 40 40 0 0 0 -40-40zm0 64a24 24 0 1 1 24-24 24 24 0 0 1 -24 24zm73.71 7.14a80 80 0 0 1 -14.08 22.2 8 8 0 0 1 -11.92-10.67 63.95 63.95 0 0 0 0-85.33 8 8 0 1 1 11.92-10.67 80.08 80.08 0 0 1 14.08 84.47zm-132.71-56.05a64 64 0 0 0 11.26 67.58 8 8 0 0 1 -11.92 10.67 79.93 79.93 0 0 1 0-106.67 8 8 0 1 1 11.95 10.67 63.77 63.77 0 0 0 -11.29 17.75zm179 24.91a119.58 119.58 0 0 1 -34.29 84 8 8 0 1 1 -11.42-11.2 103.9 103.9 0 0 0 0-145.56 8 8 0 1 1 11.42-11.24 119.58 119.58 0 0 1 34.29 84zm-194.29 72.78a8 8 0 1 1 -11.42 11.22 119.87 119.87 0 0 1 0-168 8 8 0 1 1 11.42 11.2 103.9 103.9 0 0 0 0 145.56z"
  />
</svg>
