<svg
  height="32"
  viewBox="0 0 256 256"
  width="32"
  xmlns="http://www.w3.org/2000/svg"
>
  <path
    d="m208 80h-176a8 8 0 0 0 -8 8v48a96.3 96.3 0 0 0 32.54 72h-24.54a8 8 0 0 0 0 16h176a8 8 0 0 0 0-16h-24.54a96.59 96.59 0 0 0 27-40.09 40 40 0 0 0 37.54-39.91v-8a40 40 0 0 0 -40-40zm24 48a24 24 0 0 1 -17.2 23 95.78 95.78 0 0 0 1.2-15v-38.62a24 24 0 0 1 16 22.62zm-120-72v-32a8 8 0 0 1 16 0v32a8 8 0 0 1 -16 0zm32 0v-32a8 8 0 0 1 16 0v32a8 8 0 0 1 -16 0zm-64 0v-32a8 8 0 0 1 16 0v32a8 8 0 0 1 -16 0z"
  />
</svg>
