<svg
  height="32"
  viewBox="0 0 256 256"
  width="32"
  xmlns="http://www.w3.org/2000/svg"
>
  <path
    d="m128 24c-53.83 0-96 24.6-96 56v96c0 31.4 42.17 56 96 56s96-24.6 96-56v-96c0-31.4-42.17-56-96-56zm80 104c0 9.62-7.88 19.43-21.61 26.92-15.46 8.43-36.2 13.08-58.39 13.08s-42.93-4.65-58.39-13.08c-13.73-7.49-21.61-17.3-21.61-26.92v-16.64c17.06 15 46.23 24.64 80 24.64s62.94-9.68 80-24.64zm-138.39-74.92c15.46-8.43 36.2-13.08 58.39-13.08s42.93 4.65 58.39 13.08c13.73 7.49 21.61 17.3 21.61 26.92s-7.88 19.43-21.61 26.92c-15.46 8.43-36.2 13.08-58.39 13.08s-42.93-4.65-58.39-13.08c-13.73-7.49-21.61-17.3-21.61-26.92s7.88-19.43 21.61-26.92zm116.78 149.84c-15.46 8.43-36.2 13.08-58.39 13.08s-42.93-4.65-58.39-13.08c-13.73-7.49-21.61-17.3-21.61-26.92v-16.64c17.06 15 46.23 24.64 80 24.64s62.94-9.68 80-24.64v16.64c0 9.62-7.88 19.43-21.61 26.92z"
  />
</svg>
