<svg
  height="32"
  viewBox="0 0 256 256"
  width="32"
  xmlns="http://www.w3.org/2000/svg"
>
  <path
    d="m53.92 34.62a8 8 0 1 0 -11.84 10.76l19.24 21.17c-36.32 22.29-51.94 56.65-52.63 58.21a8 8 0 0 0 0 6.5c.35.79 8.82 19.57 27.65 38.4 25.09 25.08 56.78 38.34 91.66 38.34a127.11 127.11 0 0 0 52.07-10.83l22 24.21a8 8 0 1 0 11.84-10.76zm47.33 75.84 41.67 45.85a32 32 0 0 1 -41.67-45.85zm26.75 81.54c-30.78 0-57.67-11.19-79.93-33.25a133.16 133.16 0 0 1 -23.07-30.75c4.69-8.79 19.66-33.39 47.35-49.38l18 19.75a48 48 0 0 0 63.66 70l14.73 16.2a112 112 0 0 1 -40.74 7.43zm6-95.43a8 8 0 0 1 3-15.72 48.16 48.16 0 0 1 38.77 42.64 8 8 0 0 1 -7.22 8.71 6.39 6.39 0 0 1 -.75 0 8 8 0 0 1 -8-7.26 32.09 32.09 0 0 0 -25.8-28.37zm113.28 34.69c-.42.94-10.55 23.37-33.36 43.8a8 8 0 1 1 -10.67-11.92 132.77 132.77 0 0 0 27.8-35.14 133.15 133.15 0 0 0 -23.12-30.77c-22.26-22.04-49.15-33.23-79.93-33.23a118.37 118.37 0 0 0 -19.36 1.57 8 8 0 1 1 -2.64-15.78 134 134 0 0 1 22-1.79c34.88 0 66.57 13.26 91.66 38.35 18.83 18.83 27.3 37.62 27.65 38.41a8 8 0 0 1 0 6.5z"
  />
</svg>
