<svg
  height="32"
  viewBox="0 0 256 256"
  width="32"
  xmlns="http://www.w3.org/2000/svg"
>
  <path
    d="m234.42 162a12 12 0 1 1 -20.84 12l-16.86-29.5a127.19 127.19 0 0 1 -30.17 13.86l5.29 31.64a12 12 0 0 1 -9.87 13.8 11.22 11.22 0 0 1 -2 .17 12 12 0 0 1 -11.82-10l-5.15-30.8a136.5 136.5 0 0 1 -30.06 0l-5.1 30.83a12 12 0 0 1 -11.84 10 11.22 11.22 0 0 1 -2-.17 12 12 0 0 1 -9.84-13.83l5.29-31.72a127.19 127.19 0 0 1 -30.17-13.86l-16.86 29.58a12 12 0 1 1 -20.84-12l18.42-32.15a159.73 159.73 0 0 1 -17.31-18.31 12 12 0 0 1 18.65-15.08c16.04 19.86 44.1 43.54 86.66 43.54s70.62-23.68 86.66-43.54a12 12 0 0 1 18.67 15.08 159.73 159.73 0 0 1 -17.33 18.31z"
  />
</svg>
