<svg
  height="32"
  viewBox="0 0 256 256"
  width="32"
  xmlns="http://www.w3.org/2000/svg"
>
  <path
    d="m173.79 51.48a221.25 221.25 0 0 0 -41.67-34.34 8 8 0 0 0 -8.24 0 221.25 221.25 0 0 0 -41.67 34.34c-27.62 29-42.21 60.99-42.21 92.52a88 88 0 0 0 176 0c0-31.53-14.59-63.52-42.21-92.52zm-77.79 132.52c0-27.67 22.53-47.28 32-54.3 9.48 7 32 26.63 32 54.3a32 32 0 0 1 -64 0zm77.27 15.93a47.8 47.8 0 0 0 2.73-15.93c0-44-42.09-69.79-43.88-70.86a8 8 0 0 0 -8.24 0c-1.79 1.07-43.88 26.86-43.88 70.86a47.8 47.8 0 0 0 2.73 15.93 71.88 71.88 0 0 1 -26.73-55.93c0-34.41 20.4-63.15 37.52-81.19a216.21 216.21 0 0 1 34.48-29.27 215.77 215.77 0 0 1 34.48 29.27c31.01 32.69 37.52 62.19 37.52 81.19a71.88 71.88 0 0 1 -26.73 55.93z"
  />
</svg>
