<svg
  height="32"
  viewBox="0 0 256 256"
  width="32"
  xmlns="http://www.w3.org/2000/svg"
>
  <path
    d="m237.94 107.21a8 8 0 0 0 -3.89-5.4l-29.83-17-.12-33.62a8 8 0 0 0 -2.83-6.08 111.91 111.91 0 0 0 -36.72-20.67 8 8 0 0 0 -6.46.59l-30.09 16.82-30.12-16.85a8 8 0 0 0 -6.47-.6 111.92 111.92 0 0 0 -36.68 20.75 8 8 0 0 0 -2.83 6.07l-.15 33.65-29.83 17a8 8 0 0 0 -3.89 5.4 106.47 106.47 0 0 0 0 41.56 8 8 0 0 0 3.89 5.4l29.83 17 .12 33.63a8 8 0 0 0 2.83 6.08 111.91 111.91 0 0 0 36.72 20.67 8 8 0 0 0 6.46-.59l30.12-16.87 30.12 16.85a7.91 7.91 0 0 0 3.9 1 8.09 8.09 0 0 0 2.57-.42 112.1 112.1 0 0 0 36.68-20.73 8 8 0 0 0 2.83-6.07l.15-33.65 29.83-17a8 8 0 0 0 3.89-5.4 106.47 106.47 0 0 0 -.03-41.52zm-109.94 60.79a40 40 0 1 1 40-40 40 40 0 0 1 -40 40z"
  />
</svg>
