<svg
  height="32"
  viewBox="0 0 256 256"
  width="32"
  xmlns="http://www.w3.org/2000/svg"
>
  <path
    d="m208.31 75.68a59.78 59.78 0 0 0 -5.38-47.68 8 8 0 0 0 -6.93-4 59.75 59.75 0 0 0 -48 24h-24a59.75 59.75 0 0 0 -48-24 8 8 0 0 0 -6.93 4 59.78 59.78 0 0 0 -5.38 47.68 58.14 58.14 0 0 0 -7.69 28.32v8a56.06 56.06 0 0 0 48.44 55.47 39.8 39.8 0 0 0 -8.44 24.53v8h-24a24 24 0 0 1 -24-24 40 40 0 0 0 -40-40 8 8 0 0 0 0 16 24 24 0 0 1 24 24 40 40 0 0 0 40 40h24v16a8 8 0 0 0 16 0v-40a24 24 0 0 1 48 0v40a8 8 0 0 0 16 0v-40a39.8 39.8 0 0 0 -8.44-24.53 56.06 56.06 0 0 0 48.44-55.47v-8a58.14 58.14 0 0 0 -7.69-28.32zm-8.31 36.32a40 40 0 0 1 -40 40h-48a40 40 0 0 1 -40-40v-8a41.74 41.74 0 0 1 6.9-22.48 8 8 0 0 0 1.1-7.69 43.81 43.81 0 0 1 .79-33.58 43.88 43.88 0 0 1 32.32 20.06 8 8 0 0 0 6.71 3.69h32.35a8 8 0 0 0 6.74-3.69 43.87 43.87 0 0 1 32.32-20.06 43.81 43.81 0 0 1 .77 33.58 8.09 8.09 0 0 0 1 7.65 41.72 41.72 0 0 1 7 22.52z"
  />
</svg>
