<svg
  height="32"
  viewBox="0 0 256 256"
  width="32"
  xmlns="http://www.w3.org/2000/svg"
>
  <path
    d="m188 48a27.75 27.75 0 0 0 -12 2.71v-6.71a28 28 0 0 0 -54.65-8.6 28 28 0 0 0 -41.35 24.6v64l-3.82-6.13a28 28 0 0 0 -48.6 27.82c16 33.77 28.93 57.72 43.72 72.69 14.94 15.16 31.9 21.62 56.7 21.62a88.1 88.1 0 0 0 88-88v-76a28 28 0 0 0 -28-28zm12 104a72.08 72.08 0 0 1 -72 72c-20.38 0-33.51-4.88-45.33-16.85-13.23-13.41-25.41-36.15-40.77-68.57a6.36 6.36 0 0 0 -.3-.58 12 12 0 0 1 20.79-12 1.76 1.76 0 0 0 .14.23l18.67 30a8 8 0 0 0 14.8-4.23v-92a12 12 0 0 1 24 0v60a8 8 0 0 0 16 0v-76a12 12 0 0 1 24 0v76a8 8 0 0 0 16 0v-44a12 12 0 0 1 24 0z"
  />
</svg>
