<svg
  height="32"
  viewBox="0 0 256 256"
  width="32"
  xmlns="http://www.w3.org/2000/svg"
>
  <path
    d="m56 76a60 60 0 0 1 120 0 8 8 0 0 1 -16 0 44 44 0 0 0 -88 0 8 8 0 1 1 -16 0zm140 44a27.9 27.9 0 0 0 -13.36 3.39 28 28 0 0 0 -38.64-16.69v-30.7a28 28 0 0 0 -56 0v80l-3.82-6.13a28 28 0 0 0 -48.41 28.17l29.32 50a8 8 0 1 0 13.8-8.04l-29.29-50a12 12 0 1 1 20.78-12l.14.23 18.68 30a8 8 0 0 0 14.8-4.23v-108a12 12 0 0 1 24 0v68a8 8 0 1 0 16 0v-12a12 12 0 0 1 24 0v20a8 8 0 0 0 16 0v-4a12 12 0 0 1 24 0v36c0 21.61-7.1 36.3-7.16 36.42a8 8 0 0 0 3.58 10.73 7.9 7.9 0 0 0 3.58.85 8 8 0 0 0 7.16-4.42c.37-.73 8.85-18 8.85-43.58v-36a28 28 0 0 0 -28.01-28z"
  />
</svg>
