<svg
  height="32"
  viewBox="0 0 256 256"
  width="32"
  xmlns="http://www.w3.org/2000/svg"
>
  <path
    d="m248 120a48.05 48.05 0 0 0 -48-48h-39.8c-2.91-.17-53.62-3.74-101.91-44.24a16 16 0 0 0 -26.29 12.24v160a16 16 0 0 0 26.29 12.25c37.77-31.68 77-40.76 93.71-43.3v31.72a16 16 0 0 0 7.12 13.33l11 7.33a16 16 0 0 0 24.38-9.33l11.77-44.36a48.07 48.07 0 0 0 41.73-47.64zm-200 79.93v-159.93c42.81 35.91 86.63 45 104 47.24v65.48c-17.35 2.28-61.16 11.35-104 47.21zm131 8v.11l-11-7.33v-32.71h21.6zm21-55.93h-32v-64h32a32 32 0 1 1 0 64z"
  />
</svg>
