<svg
  height="32"
  viewBox="0 0 256 256"
  width="32"
  xmlns="http://www.w3.org/2000/svg"
>
  <path
    d="m233.54 142.23a8 8 0 0 0 -8-2 88.08 88.08 0 0 1 -109.8-109.8 8 8 0 0 0 -10-10 104.84 104.84 0 0 0 -52.91 37 104 104 0 0 0 83.17 166.57 103.09 103.09 0 0 0 62.52-20.88 104.84 104.84 0 0 0 37-52.91 8 8 0 0 0 -1.98-7.98zm-44.64 48.11a88 88 0 0 1 -123.24-123.23 89 89 0 0 1 31.4-26 106 106 0 0 0 -1.06 14.89 104.11 104.11 0 0 0 104 104 106 106 0 0 0 14.92-1.06 89 89 0 0 1 -26.02 31.4z"
  />
</svg>
