<svg
  height="32"
  viewBox="0 0 256 256"
  width="32"
  xmlns="http://www.w3.org/2000/svg"
>
  <path
    d="m240 96a8 8 0 0 1 -8 8h-16v16a8 8 0 0 1 -16 0v-16h-16a8 8 0 0 1 0-16h16v-16a8 8 0 0 1 16 0v16h16a8 8 0 0 1 8 8zm-96-40h8v8a8 8 0 0 0 16 0v-8h8a8 8 0 0 0 0-16h-8v-8a8 8 0 0 0 -16 0v8h-8a8 8 0 0 0 0 16zm72.77 97a8 8 0 0 1 1.43 8 96 96 0 1 1 -123.13-123.2 8 8 0 0 1 10.6 9.06 88.07 88.07 0 0 0 103.47 103.47 8 8 0 0 1 7.63 2.67zm-19.39 14.88c-1.79.09-3.59.14-5.38.14a104.11 104.11 0 0 1 -104-104.02c0-1.79 0-3.59.14-5.38a80 80 0 1 0 109.24 109.24z"
  />
</svg>
