<svg
  height="32"
  viewBox="0 0 256 256"
  width="32"
  xmlns="http://www.w3.org/2000/svg"
>
  <path
    d="m144 16h-32a64.07 64.07 0 0 0 -64 64v96a64.07 64.07 0 0 0 64 64h32a64.07 64.07 0 0 0 64-64v-96a64.07 64.07 0 0 0 -64-64zm48 160a48.05 48.05 0 0 1 -48 48h-32a48.05 48.05 0 0 1 -48-48v-96a48.05 48.05 0 0 1 48-48h32a48.05 48.05 0 0 1 48 48zm-56-92.69v89.38l10.34-10.35a8 8 0 0 1 11.32 11.32l-24 24a8 8 0 0 1 -11.32 0l-24-24a8 8 0 0 1 11.32-11.32l10.34 10.35v-89.38l-10.34 10.35a8 8 0 0 1 -11.32-11.32l24-24a8 8 0 0 1 11.32 0l24 24a8 8 0 0 1 -11.32 11.32z"
  />
</svg>
