<svg
  height="32"
  viewBox="0 0 256 256"
  width="32"
  xmlns="http://www.w3.org/2000/svg"
>
  <path
    d="m200.77 53.89a103.27 103.27 0 0 0 -72.77-29.89h-1.07a104 104 0 0 0 -102.93 104c0 43 26.58 79.06 69.36 94.17a32 32 0 0 0 42.64-30.17 16 16 0 0 1 16-16h46.21a31.81 31.81 0 0 0 31.2-24.88 104.43 104.43 0 0 0 2.59-24 103.28 103.28 0 0 0 -31.23-73.23zm13 93.71a15.89 15.89 0 0 1 -15.56 12.4h-46.21a32 32 0 0 0 -32 32 16 16 0 0 1 -21.31 15.07c-36.2-12.77-58.69-43.07-58.69-79.07a88 88 0 0 1 87.09-88h.9a88.35 88.35 0 0 1 88 87.25 88.86 88.86 0 0 1 -2.18 20.35zm-73.77-71.6a12 12 0 1 1 -12-12 12 12 0 0 1 12 12zm-44 24a12 12 0 1 1 -12-12 12 12 0 0 1 12 12zm0 56a12 12 0 1 1 -12-12 12 12 0 0 1 12 12zm88-56a12 12 0 1 1 -12-12 12 12 0 0 1 12 12z"
  />
</svg>
