<svg
  height="32"
  viewBox="0 0 256 256"
  width="32"
  xmlns="http://www.w3.org/2000/svg"
>
  <path
    d="m235.32 81.37-60.69-60.68a16 16 0 0 0 -22.63 0l-53.63 53.8c-10.66-3.34-35-7.37-60.4 13.14a16 16 0 0 0 -1.29 23.78l48.32 48.3-42.66 42.63a8 8 0 0 0 11.32 11.32l42.63-42.66 48.29 48.29a16 16 0 0 0 11.32 4.71h1.13a15.93 15.93 0 0 0 11.64-6.33c19.64-26.1 17.75-47.32 13.19-60l53.47-53.67a16 16 0 0 0 -.01-22.63zm-11.32 11.32-57.27 57.46a8 8 0 0 0 -1.49 9.22c9.46 18.93-1.8 38.59-9.34 48.62l-107.9-107.91c12.08-9.74 23.64-12.31 32.48-12.31a40.13 40.13 0 0 1 16.33 3.23 8 8 0 0 0 9.25-1.51l57.26-57.49 60.68 60.68z"
  />
</svg>
