<svg
  height="32"
  viewBox="0 0 256 256"
  width="32"
  xmlns="http://www.w3.org/2000/svg"
>
  <path
    d="m237.66 106.35-80-80a8 8 0 0 0 -13.66 5.65v40.35c-25.94 2.22-54.59 14.92-78.16 34.91-28.38 24.08-46.05 55.11-49.76 87.37a12 12 0 0 0 20.68 9.58c11-11.71 50.14-48.74 107.24-52v39.79a8 8 0 0 0 13.66 5.65l80-80a8 8 0 0 0 0-11.3zm-77.66 66.34v-28.69a8 8 0 0 0 -8-8c-28.08 0-55.43 7.33-81.29 21.8a196.17 196.17 0 0 0 -36.57 26.52c5.8-23.84 20.42-46.51 42.05-64.86 23.22-19.69 51.56-31.46 75.81-31.46a8 8 0 0 0 8-8v-28.68l60.69 60.68z"
  />
</svg>
