<svg
  height="32"
  viewBox="0 0 256 256"
  width="32"
  xmlns="http://www.w3.org/2000/svg"
>
  <path
    d="m64 105v-65a8 8 0 0 0 -16 0v65a32 32 0 0 0 0 62v49a8 8 0 0 0 16 0v-49a32 32 0 0 0 0-62zm-8 47a16 16 0 1 1 16-16 16 16 0 0 1 -16 16zm80-95v-17a8 8 0 0 0 -16 0v17a32 32 0 0 0 0 62v97a8 8 0 0 0 16 0v-97a32 32 0 0 0 0-62zm-8 47a16 16 0 1 1 16-16 16 16 0 0 1 -16 16zm104 64a32.06 32.06 0 0 0 -24-31v-97a8 8 0 0 0 -16 0v97a32 32 0 0 0 0 62v17a8 8 0 0 0 16 0v-17a32.06 32.06 0 0 0 24-31zm-32 16a16 16 0 1 1 16-16 16 16 0 0 1 -16 16z"
  />
</svg>
