<svg
  height="32"
  viewBox="0 0 256 256"
  width="32"
  xmlns="http://www.w3.org/2000/svg"
>
  <path
    d="m155.51 24.81a8 8 0 0 0 -8.42.88l-69.84 54.31h-45.25a16 16 0 0 0 -16 16v64a16 16 0 0 0 16 16h45.25l69.84 54.31a8 8 0 0 0 12.91-6.31v-192a8 8 0 0 0 -4.49-7.19zm-123.51 71.19h40v64h-40zm112 111.64-56-43.55v-72.18l56-43.55zm54-106.08a40 40 0 0 1 0 52.88 8 8 0 0 1 -12-10.58 24 24 0 0 0 0-31.72 8 8 0 0 1 12-10.58zm50 26.44a79.9 79.9 0 0 1 -20.37 53.34 8 8 0 0 1 -11.92-10.67 64 64 0 0 0 0-85.33 8 8 0 1 1 11.92-10.67 79.83 79.83 0 0 1 20.37 53.33z"
  />
</svg>
