<svg
  height="32"
  viewBox="0 0 256 256"
  width="32"
  xmlns="http://www.w3.org/2000/svg"
>
  <path
    d="m120 40v-8a8 8 0 0 1 16 0v8a8 8 0 0 1 -16 0zm72 88a64 64 0 1 1 -64-64 64.07 64.07 0 0 1 64 64zm-16 0a48 48 0 1 0 -48 48 48.05 48.05 0 0 0 48-48zm-117.66-58.34a8 8 0 0 0 11.32-11.32l-8-8a8 8 0 0 0 -11.32 11.32zm0 116.68-8 8a8 8 0 0 0 11.32 11.32l8-8a8 8 0 0 0 -11.32-11.32zm133.66-114.34a8 8 0 0 0 5.66-2.34l8-8a8 8 0 0 0 -11.32-11.32l-8 8a8 8 0 0 0 5.66 13.66zm5.66 114.34a8 8 0 0 0 -11.32 11.32l8 8a8 8 0 0 0 11.32-11.32zm-157.66-66.34h-8a8 8 0 0 0 0 16h8a8 8 0 0 0 0-16zm88 88a8 8 0 0 0 -8 8v8a8 8 0 0 0 16 0v-8a8 8 0 0 0 -8-8zm96-88h-8a8 8 0 0 0 0 16h8a8 8 0 0 0 0-16z"
  />
</svg>
