<svg
  height="32"
  viewBox="0 0 256 256"
  width="32"
  xmlns="http://www.w3.org/2000/svg"
>
  <path
    d="m168 56a8 8 0 0 1 8-8h16v-16a8 8 0 0 1 16 0v16h16a8 8 0 0 1 0 16h-16v16a8 8 0 0 1 -16 0v-16h-16a8 8 0 0 1 -8-8zm62.56 54.68a103.92 103.92 0 1 1 -85.24-85.24 8 8 0 0 1 -2.64 15.78 88.07 88.07 0 0 0 -102.68 86.78 87.62 87.62 0 0 0 22.24 58.41 79.66 79.66 0 0 1 36.06-28.75 48 48 0 1 1 59.4 0 79.66 79.66 0 0 1 36.06 28.75 87.62 87.62 0 0 0 22.24-58.41 88.85 88.85 0 0 0 -1.22-14.68 8 8 0 1 1 15.78-2.64zm-102.56 41.32a32 32 0 1 0 -32-32 32 32 0 0 0 32 32zm0 64a87.57 87.57 0 0 0 53.92-18.5 64 64 0 0 0 -107.84 0 87.57 87.57 0 0 0 53.92 18.5z"
  />
</svg>
