<svg height="32" viewBox="0 0 256 256" width="32" xmlns="http://www.w3.org/2000/svg"><path d="m224 104c-16.81 20.81-47.63 48-96 48s-79.19-27.19-96-48c16.81-20.81 47.63-48 96-48s79.19 27.19 96 48z" opacity=".2"/><path d="m228 175a8 8 0 0 1 -10.92-3l-19-33.2a123.23 123.23 0 0 1 -36.08 16.66l5.87 35.22a8 8 0 0 1 -6.58 9.21 8.4 8.4 0 0 1 -1.29.11 8 8 0 0 1 -7.88-6.69l-5.77-34.58a133.06 133.06 0 0 1 -36.68 0l-5.77 34.58a8 8 0 0 1 -7.9 6.69 8.4 8.4 0 0 1 -1.32-.11 8 8 0 0 1 -6.58-9.21l5.9-35.22a123.23 123.23 0 0 1 -36.06-16.69l-18.94 33.23a8 8 0 1 1 -13.94-8l20-35a153.47 153.47 0 0 1 -19.3-20 8 8 0 1 1 12.46-10c16.6 20.54 45.64 45 89.78 45s73.18-24.49 89.78-45a8 8 0 1 1 12.44 10 153.47 153.47 0 0 1 -19.3 20l20 35a8 8 0 0 1 -2.92 11z"/></svg>