<svg height="32" viewBox="0 0 256 256" width="32" xmlns="http://www.w3.org/2000/svg"><path d="m128 56c-80 0-112 72-112 72s32 72 112 72 112-72 112-72-32-72-112-72zm0 112a40 40 0 1 1 40-40 40 40 0 0 1 -40 40z" opacity=".2"/><path d="m247.31 124.76c-.35-.79-8.82-19.58-27.65-38.41-25.09-25.09-56.78-38.35-91.66-38.35s-66.57 13.26-91.66 38.35c-18.83 18.83-27.34 37.65-27.65 38.41a8 8 0 0 0 0 6.5c.35.79 8.82 19.57 27.65 38.4 25.09 25.08 56.78 38.34 91.66 38.34s66.57-13.26 91.66-38.34c18.83-18.83 27.3-37.61 27.65-38.4a8 8 0 0 0 0-6.5zm-119.31 67.24c-30.78 0-57.67-11.19-79.93-33.25a133.47 133.47 0 0 1 -23.07-30.75 133.33 133.33 0 0 1 23.07-30.75c22.26-22.06 49.15-33.25 79.93-33.25s57.67 11.19 79.93 33.25a133.46 133.46 0 0 1 23.12 30.75c-7.21 13.46-38.62 64-103.05 64zm0-112a48 48 0 1 0 48 48 48.05 48.05 0 0 0 -48-48zm0 80a32 32 0 1 1 32-32 32 32 0 0 1 -32 32z"/></svg>