<svg height="32" viewBox="0 0 256 256" width="32" xmlns="http://www.w3.org/2000/svg"><path d="m224 56v120c-64 55.43-112-55.43-176 0v-120c64-55.43 112 55.43 176 0z" opacity=".2"/><path d="m42.76 50a8 8 0 0 0 -2.76 6v168a8 8 0 0 0 16 0v-44.23c26.79-21.16 49.87-9.75 76.45 3.41 16.4 8.11 34.06 16.85 53 16.85 13.93 0 28.54-4.75 43.82-18a8 8 0 0 0 2.76-6v-120.03a8 8 0 0 0 -13.27-6c-28 24.23-51.72 12.49-79.21-1.12-28.48-14.12-60.77-30.09-96.79 1.12zm173.24 122.25c-26.79 21.16-49.87 9.74-76.45-3.41-25-12.35-52.81-26.13-83.55-8.4v-100.65c26.79-21.16 49.87-9.75 76.45 3.4 25 12.35 52.82 26.13 83.55 8.4z"/></svg>