<svg height="32" viewBox="0 0 256 256" width="32" xmlns="http://www.w3.org/2000/svg"><path d="m128 129.09v102.91a8 8 0 0 1 -3.84-1l-88-48.18a8 8 0 0 1 -4.16-7v-95.64a8 8 0 0 1 .7-3.25z" opacity=".2"/><path d="m223.68 66.15-88-48.15a15.88 15.88 0 0 0 -15.36 0l-88 48.17a16 16 0 0 0 -8.32 14v95.64a16 16 0 0 0 8.32 14l88 48.17a15.88 15.88 0 0 0 15.36 0l88-48.17a16 16 0 0 0 8.32-14v-95.63a16 16 0 0 0 -8.32-14.03zm-95.68-34.15 80.34 44-29.77 16.3-80.35-44zm0 88-80.34-44 33.9-18.56 80.34 44zm-88-30 80 43.78v85.79l-80-43.75zm176 85.78-80 43.79v-85.75l32-17.51v35.69a8 8 0 0 0 16 0v-44.45l32-17.55v85.77z"/></svg>