<svg height="32" viewBox="0 0 256 256" width="32" xmlns="http://www.w3.org/2000/svg"><path d="m40 96h48v112h-56v-104a8 8 0 0 1 8-8zm176 40h-48v72h56v-64a8 8 0 0 0 -8-8z" opacity=".2"/><path d="m112.41 102.53a8 8 0 0 1 5.06-10.12l12-4a8 8 0 0 1 10.53 7.59v40a8 8 0 0 1 -16 0v-28.9l-1.47.49a8 8 0 0 1 -10.12-5.06zm135.59 105.47a8 8 0 0 1 -8 8h-224a8 8 0 0 1 0-16h8v-96a16 16 0 0 1 16-16h40v-32a16 16 0 0 1 16-16h64a16 16 0 0 1 16 16v72h40a16 16 0 0 1 16 16v56h8a8 8 0 0 1 8 8zm-72-64v56h40v-56zm-80 56h64v-144h-64zm-56 0h40v-96h-40z"/></svg>