<svg height="32" viewBox="0 0 256 256" width="32" xmlns="http://www.w3.org/2000/svg"><path d="m112 168a32 32 0 1 1 -32-32 32 32 0 0 1 32 32zm-32-136a32 32 0 1 0 32 32 32 32 0 0 0 -32-32zm96 104a32 32 0 1 0 32 32 32 32 0 0 0 -32-32zm0-40a32 32 0 1 0 -32-32 32 32 0 0 0 32 32z" opacity=".2"/><path d="m27.2 126.4a8 8 0 0 0 11.2-1.6 52 52 0 0 1 83.2 0 8 8 0 0 0 11.2 1.59 7.73 7.73 0 0 0 1.59-1.59 52 52 0 0 1 83.2 0 8 8 0 0 0 12.8-9.61 67.85 67.85 0 0 0 -27.39-21.68 40 40 0 1 0 -53.94 0 67.27 67.27 0 0 0 -21 14.31 67.27 67.27 0 0 0 -21-14.31 40 40 0 1 0 -53.94 0 67.88 67.88 0 0 0 -27.52 21.69 8 8 0 0 0 1.6 11.2zm148.8-86.4a24 24 0 1 1 -24 24 24 24 0 0 1 24-24zm-96 0a24 24 0 1 1 -24 24 24 24 0 0 1 24-24zm123 157.51a40 40 0 1 0 -53.94 0 67.27 67.27 0 0 0 -21 14.31 67.27 67.27 0 0 0 -21-14.31 40 40 0 1 0 -53.94 0 67.88 67.88 0 0 0 -27.52 21.69 8 8 0 1 0 12.8 9.6 52 52 0 0 1 83.2 0 8 8 0 0 0 11.2 1.59 7.73 7.73 0 0 0 1.59-1.59 52 52 0 0 1 83.2 0 8 8 0 0 0 12.8-9.61 67.85 67.85 0 0 0 -27.39-21.68zm-123-53.51a24 24 0 1 1 -24 24 24 24 0 0 1 24-24zm96 0a24 24 0 1 1 -24 24 24 24 0 0 1 24-24z"/></svg>