<svg height="100" viewBox="0 0 100 100" width="100" xmlns="http://www.w3.org/2000/svg"><g fill="none"><path d="m13.493569 59.4110169c1.5460686 9.0758632 4.7815247 18.1898776 11.4498704 25.3241247 6.6683456 7.1342471 17.2401235 11.9801123 27.76286 10.8420527 12.0341381-1.3012235 21.4149738-9.8644319 27.1312422-19.1174251 5.7467079-9.3023852 8.8853497-19.963561 7.7468311-30.4653199-1.1385187-10.501759-6.7833391-20.7786992-16.266485-27.4088074-9.483146-6.6301082-22.8638054-9.22335794-34.3935793-5.7928288-21.3139318 6.3422721-26.3089552 29.7213744-23.4307394 46.6182038z" fill="#faa000"/><path d="m49.6247314 100c-10.6060221 0-21.4010223-4.6782815-28.902647-12.7032876-6.4286353-6.8767275-10.505403-15.8091837-12.46409477-27.306617-1.6881192-9.9110989-.64810587-20.5433208 2.85665447-29.1705686 4.4978463-11.0767498 12.7900502-18.691632 23.9790718-22.02065215 12.905889-3.84133427 28.4845278-1.26034733 39.6875007 6.57083785 10.1688784 7.1090401 16.7543612 18.136398 18.0679065 30.2537859 1.1659987 10.7575754-1.6974201 22.0761756-8.2807891 32.734967-7.6022438 12.3060994-18.9591049 20.1209341-31.1581231 21.4405518-1.2548795.1347122-2.5195114.2009828-3.7854795.2009828zm-30.8960059-41.1680616c1.7071439 10.0207831 5.120586 17.6557628 10.4352233 23.3412918 6.0105161 6.4294745 14.9753465 10.0327053 22.8397075 9.184185 4.1008656-.4428247 14.5610322-2.9682883 23.1022474-16.7932765 5.7158457-9.2533338 8.2101866-19.0039939 7.2141413-28.1980573-1.0772171-9.9363058-6.3500001-18.8888594-14.4663318-24.5628068-8.3336354-5.8248485-19.7568713-7.7964404-29.0988122-5.0148198-5.6156492 1.6708118-13.2263485 5.921248-17.5956728 16.6808671-3.022803 7.4428619-3.9085054 16.6876799-2.4305027 25.3643196z" fill="#faa000"/><g fill="#3c2c13"><path d="m15.9054698 17.3842244c-3.5910054 3.7432315-6.96132503 7.7061723-8.93100882 12.1630329-1.96968379 4.4568607-2.43219379 9.4934811-.23463716 13.8805117 2.61821244 5.2260131 8.72427448 8.9324562 15.33089578 10.7831229 6.6066213 1.8506668 13.7298671 2.0734417 20.7241682 2.0390376 8.6050534-.0425793 17.3043845-.4598564 25.5428966-2.4627868 8.2385121-2.0029303 16.0534091-5.7226581 21.0907095-11.3431259 5.0373003-5.6204678 6.9211619-13.2901922 3.6299002-19.696163-2.5175933-4.900026-7.6977898-8.6180506-13.2982193-11.4047807-10.943714-5.36388281-23.7215907-7.7834818-36.4850207-6.90874717-12.0168045.81036926-20.027021 5.2958432-27.3696843 12.94989847z"/><path d="m41.6191654 60.5109254c-6.9803497 0-14.3318911-.330756-21.284338-2.2785036-8.7796573-2.4593805-15.5211421-7.2742479-18.49532657-13.2104838-2.50533294-5.001535-2.44995012-11.0041947.15642477-16.9026201 2.30916782-5.2249913 6.21471383-9.6740173 9.7283524-13.338903l4.1811918 2.6038095-4.1811918-2.6038095c8.8599835-9.23630206 18.4547407-13.73608264 31.1090818-14.58937185 13.8910146-.95413619 27.7980318 1.68274093 39.7031433 7.52802051 7.5954795 3.77899814 12.7786354 8.28695394 15.4048804 13.39919524 3.8472035 7.4871444 2.2263045 16.6130809-4.2276965 23.8168174-6.7507857 7.5334707-16.6951734 11.1884779-23.8488586 12.9277573-9.2903631 2.2587467-18.8808925 2.60415-27.0369646 2.6443449-.401913.002498-.8048125.003747-1.2086984.003747zm6.7292245-51.98983418c-1.5431092 0-3.0874868.05205636-4.6331326.15583631-9.7038317.6543587-16.5493179 3.93194297-23.6290184 11.31144687-3.0050467 3.1338366-6.3220974 6.8883091-8.1328198 10.987163-1.7384288 3.9343275-1.85004 7.7909903-.3128495 10.8584032 1.8048036 3.6035714 6.3529595 6.727189 12.1651966 8.3550808 5.5209489 1.5464803 11.5792379 1.8452166 18.9569911 1.802978 7.4014282-.0364479 16.046222-.3358656 24.0479831-2.2822506 7.9057925-1.9218593 14.4164451-5.3881551 18.3329831-9.7598572 4.259827-4.7542345 5.4503463-10.8662377 3.0316811-15.5748272-1.7591445-3.425079-5.5247537-6.5909352-11.1915581-9.4103663-8.6243372-4.2356805-18.5352321-6.46579205-28.6354566-6.44360688z"/></g><path d="m44.9577773 50.2871241c-1.4689836 0-2.9358534-.053366-4.4006093-.1600981-2.9069408-.2125838-5.049595-2.2836319-4.7857522-4.6258153.2638428-2.3421835 2.8342708-4.0685652 5.7412116-3.8559816 15.5156461 1.1356751 31.6895446-5.7114172 39.3340654-16.647485.9203298-1.3350688 2.6575763-2.170765 4.5528423-2.1901286 1.895266-.0193635 3.6582538.7805715 4.6203033 2.0964084.9620494 1.3158368.9758035 2.946029.0360456 4.2722825-4.91206 6.9261636-12.2076144 12.5585043-21.0057327 16.2169231-7.4194762 3.1811851-15.6878763 4.8607489-24.092374 4.8938946z" fill="#5c452b"/><path d="m60.341942 92.996548c-1.1660764.008768-2.3144701-.2299546-3.3297337-.6921691-1.5467231-.7174188-2.6096586-1.9583906-2.8934355-3.3780715-.2622203-1.3767771.189339-2.7798784 1.2488616-3.8805072 1.6004123-1.7766829 3.7373677-3.1946828 6.2083722-4.1196326 1.4615079-1.2807848 3.6688381-1.8240031 5.7691147-1.4197642 2.4185003.4487193 4.283593 2.0010971 4.7616545 3.9632813.2781825 1.1751888.1910919 2.9856607-1.802267 4.935452-1.9274174 1.8847513-4.4336909 3.3300686-7.2695241 4.1921878-.860603.2624111-1.7728773.3976489-2.6930427.3992235z" fill="#ffbc5c"/></g></svg>